<mxfile host="app.diagrams.net" modified="2021-04-18T15:31:06.419Z" agent="5.0 (Macintosh; Intel Mac OS X 10_15_5) AppleWebKit/537.36 (KHTML, like Gecko) Chrome/90.0.4430.72 Safari/537.36" etag="sNdo5S9v_JyL9ebDX_2v" version="14.6.1" type="github" pages="2">
  <diagram id="C5RBs43oDa-KdzZeNtuy" name="Page-1">
    <mxGraphModel dx="946" dy="614" grid="1" gridSize="10" guides="1" tooltips="1" connect="1" arrows="1" fold="1" page="1" pageScale="1" pageWidth="3300" pageHeight="4681" math="0" shadow="0">
      <root>
        <mxCell id="WIyWlLk6GJQsqaUBKTNV-0" />
        <mxCell id="WIyWlLk6GJQsqaUBKTNV-1" parent="WIyWlLk6GJQsqaUBKTNV-0" />
        <mxCell id="kv8SATcvC7AtezgzXrSW-21" value="Starting State" style="rounded=0;whiteSpace=wrap;html=1;" vertex="1" parent="WIyWlLk6GJQsqaUBKTNV-1">
          <mxGeometry x="920" y="10" width="240" height="30" as="geometry" />
        </mxCell>
        <mxCell id="kv8SATcvC7AtezgzXrSW-40" style="edgeStyle=orthogonalEdgeStyle;rounded=0;orthogonalLoop=1;jettySize=auto;html=1;exitX=0.75;exitY=1;exitDx=0;exitDy=0;entryX=0;entryY=0.75;entryDx=0;entryDy=0;" edge="1" parent="WIyWlLk6GJQsqaUBKTNV-1" source="kv8SATcvC7AtezgzXrSW-22" target="kv8SATcvC7AtezgzXrSW-25">
          <mxGeometry relative="1" as="geometry" />
        </mxCell>
        <mxCell id="kv8SATcvC7AtezgzXrSW-41" style="edgeStyle=orthogonalEdgeStyle;rounded=0;orthogonalLoop=1;jettySize=auto;html=1;exitX=0.25;exitY=1;exitDx=0;exitDy=0;entryX=1;entryY=0.75;entryDx=0;entryDy=0;" edge="1" parent="WIyWlLk6GJQsqaUBKTNV-1" source="kv8SATcvC7AtezgzXrSW-22" target="kv8SATcvC7AtezgzXrSW-24">
          <mxGeometry relative="1" as="geometry" />
        </mxCell>
        <mxCell id="kv8SATcvC7AtezgzXrSW-22" value="App Component" style="rounded=0;whiteSpace=wrap;html=1;" vertex="1" parent="WIyWlLk6GJQsqaUBKTNV-1">
          <mxGeometry x="920" y="80" width="240" height="30" as="geometry" />
        </mxCell>
        <mxCell id="kv8SATcvC7AtezgzXrSW-23" value="1) sets dummy values as initial state&lt;br&gt;2) returns NewExpense and Expenses(dummy data)" style="rounded=0;whiteSpace=wrap;html=1;" vertex="1" parent="WIyWlLk6GJQsqaUBKTNV-1">
          <mxGeometry x="1200" y="50" width="320" height="60" as="geometry" />
        </mxCell>
        <mxCell id="kv8SATcvC7AtezgzXrSW-29" style="edgeStyle=orthogonalEdgeStyle;rounded=0;orthogonalLoop=1;jettySize=auto;html=1;exitX=0.25;exitY=1;exitDx=0;exitDy=0;entryX=0.458;entryY=0;entryDx=0;entryDy=0;entryPerimeter=0;" edge="1" parent="WIyWlLk6GJQsqaUBKTNV-1" source="kv8SATcvC7AtezgzXrSW-24" target="kv8SATcvC7AtezgzXrSW-27">
          <mxGeometry relative="1" as="geometry" />
        </mxCell>
        <mxCell id="kv8SATcvC7AtezgzXrSW-32" style="edgeStyle=orthogonalEdgeStyle;rounded=0;orthogonalLoop=1;jettySize=auto;html=1;exitX=0.5;exitY=1;exitDx=0;exitDy=0;entryX=1;entryY=0.25;entryDx=0;entryDy=0;" edge="1" parent="WIyWlLk6GJQsqaUBKTNV-1" source="kv8SATcvC7AtezgzXrSW-24" target="kv8SATcvC7AtezgzXrSW-30">
          <mxGeometry relative="1" as="geometry" />
        </mxCell>
        <mxCell id="kv8SATcvC7AtezgzXrSW-35" style="edgeStyle=orthogonalEdgeStyle;rounded=0;orthogonalLoop=1;jettySize=auto;html=1;exitX=0.75;exitY=1;exitDx=0;exitDy=0;entryX=0.958;entryY=0;entryDx=0;entryDy=0;entryPerimeter=0;" edge="1" parent="WIyWlLk6GJQsqaUBKTNV-1" source="kv8SATcvC7AtezgzXrSW-24" target="kv8SATcvC7AtezgzXrSW-33">
          <mxGeometry relative="1" as="geometry">
            <mxPoint x="810" y="360" as="targetPoint" />
          </mxGeometry>
        </mxCell>
        <mxCell id="kv8SATcvC7AtezgzXrSW-38" style="edgeStyle=orthogonalEdgeStyle;rounded=0;orthogonalLoop=1;jettySize=auto;html=1;entryX=1;entryY=0.5;entryDx=0;entryDy=0;" edge="1" parent="WIyWlLk6GJQsqaUBKTNV-1" source="kv8SATcvC7AtezgzXrSW-24" target="kv8SATcvC7AtezgzXrSW-36">
          <mxGeometry relative="1" as="geometry" />
        </mxCell>
        <mxCell id="kv8SATcvC7AtezgzXrSW-24" value="Expenses Component" style="rounded=0;whiteSpace=wrap;html=1;" vertex="1" parent="WIyWlLk6GJQsqaUBKTNV-1">
          <mxGeometry x="640" y="160" width="240" height="40" as="geometry" />
        </mxCell>
        <mxCell id="kv8SATcvC7AtezgzXrSW-25" value="New Expense Component" style="rounded=0;whiteSpace=wrap;html=1;" vertex="1" parent="WIyWlLk6GJQsqaUBKTNV-1">
          <mxGeometry x="1200" y="160" width="240" height="30" as="geometry" />
        </mxCell>
        <mxCell id="kv8SATcvC7AtezgzXrSW-26" value="1) sets initial filterstate to 2020.&lt;br&gt;2) returns Card&lt;br&gt;3) returns ExpenseFilter(passes selected year as prop selected).&lt;br&gt;4) returns ExpensesChart(passes the expenses for the filtered year as prop expenses.&lt;br&gt;5) returns ExpensesList(passes the expenses for the filtered year as prop expenses.)" style="rounded=0;whiteSpace=wrap;html=1;" vertex="1" parent="WIyWlLk6GJQsqaUBKTNV-1">
          <mxGeometry x="190" y="110" width="320" height="130" as="geometry" />
        </mxCell>
        <mxCell id="kv8SATcvC7AtezgzXrSW-27" value="Card Component" style="rounded=0;whiteSpace=wrap;html=1;" vertex="1" parent="WIyWlLk6GJQsqaUBKTNV-1">
          <mxGeometry x="440" y="320" width="240" height="30" as="geometry" />
        </mxCell>
        <mxCell id="kv8SATcvC7AtezgzXrSW-28" value="1) Is container ui element will display the ExpenseFilter, ExpensesChart and Expenses List components" style="rounded=0;whiteSpace=wrap;html=1;" vertex="1" parent="WIyWlLk6GJQsqaUBKTNV-1">
          <mxGeometry x="110" y="320" width="320" height="30" as="geometry" />
        </mxCell>
        <mxCell id="kv8SATcvC7AtezgzXrSW-30" value="ExpenseFilter Component" style="rounded=0;whiteSpace=wrap;html=1;" vertex="1" parent="WIyWlLk6GJQsqaUBKTNV-1">
          <mxGeometry x="440" y="400" width="240" height="30" as="geometry" />
        </mxCell>
        <mxCell id="kv8SATcvC7AtezgzXrSW-31" value="1) Will receive selected year as prop.&lt;br&gt;2) Will display the selected year as default value in the filter" style="rounded=0;whiteSpace=wrap;html=1;" vertex="1" parent="WIyWlLk6GJQsqaUBKTNV-1">
          <mxGeometry x="110" y="400" width="320" height="30" as="geometry" />
        </mxCell>
        <mxCell id="kv8SATcvC7AtezgzXrSW-44" style="edgeStyle=orthogonalEdgeStyle;rounded=0;orthogonalLoop=1;jettySize=auto;html=1;exitX=1;exitY=1;exitDx=0;exitDy=0;entryX=1;entryY=0.5;entryDx=0;entryDy=0;" edge="1" parent="WIyWlLk6GJQsqaUBKTNV-1" source="kv8SATcvC7AtezgzXrSW-33" target="kv8SATcvC7AtezgzXrSW-42">
          <mxGeometry relative="1" as="geometry">
            <Array as="points">
              <mxPoint x="720" y="560" />
              <mxPoint x="720" y="835" />
            </Array>
          </mxGeometry>
        </mxCell>
        <mxCell id="kv8SATcvC7AtezgzXrSW-33" value="ExpensesChart Component" style="rounded=0;whiteSpace=wrap;html=1;" vertex="1" parent="WIyWlLk6GJQsqaUBKTNV-1">
          <mxGeometry x="440" y="530" width="240" height="30" as="geometry" />
        </mxCell>
        <mxCell id="kv8SATcvC7AtezgzXrSW-34" value="1) will receive the array of filtered expenses basis match with the year.&lt;br&gt;2) has array of label and value to set the chart height in chartdataPoints object.&lt;br&gt;3) will loop through the expenses received in props. assign amount.&lt;br&gt;4) return Chart(passes the chartDataPoints as dataPoints prop" style="rounded=0;whiteSpace=wrap;html=1;" vertex="1" parent="WIyWlLk6GJQsqaUBKTNV-1">
          <mxGeometry x="110" y="480" width="320" height="130" as="geometry" />
        </mxCell>
        <mxCell id="kv8SATcvC7AtezgzXrSW-51" style="edgeStyle=orthogonalEdgeStyle;rounded=0;orthogonalLoop=1;jettySize=auto;html=1;exitX=0.75;exitY=1;exitDx=0;exitDy=0;entryX=1;entryY=0.75;entryDx=0;entryDy=0;" edge="1" parent="WIyWlLk6GJQsqaUBKTNV-1" source="kv8SATcvC7AtezgzXrSW-36" target="kv8SATcvC7AtezgzXrSW-49">
          <mxGeometry relative="1" as="geometry">
            <Array as="points">
              <mxPoint x="670" y="710" />
              <mxPoint x="670" y="900" />
              <mxPoint x="700" y="900" />
              <mxPoint x="700" y="1113" />
            </Array>
          </mxGeometry>
        </mxCell>
        <mxCell id="kv8SATcvC7AtezgzXrSW-36" value="ExpensesList Component" style="rounded=0;whiteSpace=wrap;html=1;" vertex="1" parent="WIyWlLk6GJQsqaUBKTNV-1">
          <mxGeometry x="440" y="680" width="240" height="30" as="geometry" />
        </mxCell>
        <mxCell id="kv8SATcvC7AtezgzXrSW-37" value="1) will receive the array of filtered expenses basis match with the year.&lt;br&gt;2) if the data is empty it will display no expenses found.&lt;br&gt;3) if not empty it will map through the expenses and then call ExpenseItem(passes key, title, amount and date as props)" style="rounded=0;whiteSpace=wrap;html=1;" vertex="1" parent="WIyWlLk6GJQsqaUBKTNV-1">
          <mxGeometry x="110" y="640" width="320" height="110" as="geometry" />
        </mxCell>
        <mxCell id="kv8SATcvC7AtezgzXrSW-48" style="edgeStyle=orthogonalEdgeStyle;rounded=0;orthogonalLoop=1;jettySize=auto;html=1;exitX=0.75;exitY=1;exitDx=0;exitDy=0;" edge="1" parent="WIyWlLk6GJQsqaUBKTNV-1" source="kv8SATcvC7AtezgzXrSW-42" target="kv8SATcvC7AtezgzXrSW-46">
          <mxGeometry relative="1" as="geometry" />
        </mxCell>
        <mxCell id="kv8SATcvC7AtezgzXrSW-42" value="Chart Component" style="rounded=0;whiteSpace=wrap;html=1;" vertex="1" parent="WIyWlLk6GJQsqaUBKTNV-1">
          <mxGeometry x="440" y="820" width="240" height="30" as="geometry" />
        </mxCell>
        <mxCell id="kv8SATcvC7AtezgzXrSW-45" value="1) will receive the chartDataPoints as props.&amp;nbsp;&lt;br&gt;2) Will calculate the maximum value for one expense.&lt;br&gt;3) Will return ChartBar(passes key, value, maxValue and label as props" style="rounded=0;whiteSpace=wrap;html=1;" vertex="1" parent="WIyWlLk6GJQsqaUBKTNV-1">
          <mxGeometry x="110" y="790" width="320" height="110" as="geometry" />
        </mxCell>
        <mxCell id="kv8SATcvC7AtezgzXrSW-46" value="ChartBar Component" style="rounded=0;whiteSpace=wrap;html=1;" vertex="1" parent="WIyWlLk6GJQsqaUBKTNV-1">
          <mxGeometry x="440" y="960" width="240" height="30" as="geometry" />
        </mxCell>
        <mxCell id="kv8SATcvC7AtezgzXrSW-47" value="1) Will display the bar correcty." style="rounded=0;whiteSpace=wrap;html=1;" vertex="1" parent="WIyWlLk6GJQsqaUBKTNV-1">
          <mxGeometry x="110" y="955" width="320" height="40" as="geometry" />
        </mxCell>
        <mxCell id="kv8SATcvC7AtezgzXrSW-54" style="edgeStyle=orthogonalEdgeStyle;rounded=0;orthogonalLoop=1;jettySize=auto;html=1;exitX=0.75;exitY=1;exitDx=0;exitDy=0;entryX=0.5;entryY=0;entryDx=0;entryDy=0;" edge="1" parent="WIyWlLk6GJQsqaUBKTNV-1" source="kv8SATcvC7AtezgzXrSW-49" target="kv8SATcvC7AtezgzXrSW-52">
          <mxGeometry relative="1" as="geometry" />
        </mxCell>
        <mxCell id="kv8SATcvC7AtezgzXrSW-49" value="ExpenseItem Component" style="rounded=0;whiteSpace=wrap;html=1;" vertex="1" parent="WIyWlLk6GJQsqaUBKTNV-1">
          <mxGeometry x="440" y="1090" width="240" height="30" as="geometry" />
        </mxCell>
        <mxCell id="kv8SATcvC7AtezgzXrSW-50" value="1) will receive the relevant expense list as a prop.&amp;nbsp;&lt;br&gt;2) return Expense date(pass date as prop date)&lt;br&gt;3) Displaythe title and amount" style="rounded=0;whiteSpace=wrap;html=1;" vertex="1" parent="WIyWlLk6GJQsqaUBKTNV-1">
          <mxGeometry x="110" y="1040" width="320" height="110" as="geometry" />
        </mxCell>
        <mxCell id="kv8SATcvC7AtezgzXrSW-52" value="ExpenseDate Component" style="rounded=0;whiteSpace=wrap;html=1;" vertex="1" parent="WIyWlLk6GJQsqaUBKTNV-1">
          <mxGeometry x="440" y="1210" width="240" height="30" as="geometry" />
        </mxCell>
        <mxCell id="kv8SATcvC7AtezgzXrSW-53" value="1) will reformat the date correctly and display" style="rounded=0;whiteSpace=wrap;html=1;" vertex="1" parent="WIyWlLk6GJQsqaUBKTNV-1">
          <mxGeometry x="110" y="1180" width="320" height="110" as="geometry" />
        </mxCell>
        <mxCell id="kv8SATcvC7AtezgzXrSW-57" value="1) set initial state to false.&lt;br&gt;2) Display button - Add New Expense" style="rounded=0;whiteSpace=wrap;html=1;" vertex="1" parent="WIyWlLk6GJQsqaUBKTNV-1">
          <mxGeometry x="1480" y="150" width="320" height="60" as="geometry" />
        </mxCell>
      </root>
    </mxGraphModel>
  </diagram>
  <diagram id="BvcNkZxT-QmAQpmxRhEc" name="Page-2">
    <mxGraphModel dx="946" dy="614" grid="1" gridSize="10" guides="1" tooltips="1" connect="1" arrows="1" fold="1" page="1" pageScale="1" pageWidth="3300" pageHeight="4681" math="0" shadow="0">
      <root>
        <mxCell id="rGn6xfDUcE6vp63_f6CC-0" />
        <mxCell id="rGn6xfDUcE6vp63_f6CC-1" parent="rGn6xfDUcE6vp63_f6CC-0" />
        <mxCell id="skR1pX6ddOoQZ_6h21xY-0" value="Change in State (when user submits a new expense)" style="rounded=0;whiteSpace=wrap;html=1;" vertex="1" parent="rGn6xfDUcE6vp63_f6CC-1">
          <mxGeometry x="920" y="10" width="240" height="30" as="geometry" />
        </mxCell>
        <mxCell id="skR1pX6ddOoQZ_6h21xY-2" style="edgeStyle=orthogonalEdgeStyle;rounded=0;orthogonalLoop=1;jettySize=auto;html=1;exitX=0.25;exitY=1;exitDx=0;exitDy=0;entryX=1;entryY=0.75;entryDx=0;entryDy=0;" edge="1" parent="rGn6xfDUcE6vp63_f6CC-1" source="skR1pX6ddOoQZ_6h21xY-3" target="skR1pX6ddOoQZ_6h21xY-9">
          <mxGeometry relative="1" as="geometry" />
        </mxCell>
        <mxCell id="skR1pX6ddOoQZ_6h21xY-3" value="App Component" style="rounded=0;whiteSpace=wrap;html=1;" vertex="1" parent="rGn6xfDUcE6vp63_f6CC-1">
          <mxGeometry x="920" y="80" width="240" height="30" as="geometry" />
        </mxCell>
        <mxCell id="skR1pX6ddOoQZ_6h21xY-4" value="1) sets dummy values as initial state&lt;br&gt;2) returns NewExpense and Expenses(dummy data)" style="rounded=0;whiteSpace=wrap;html=1;" vertex="1" parent="rGn6xfDUcE6vp63_f6CC-1">
          <mxGeometry x="1200" y="50" width="320" height="60" as="geometry" />
        </mxCell>
        <mxCell id="skR1pX6ddOoQZ_6h21xY-5" style="edgeStyle=orthogonalEdgeStyle;rounded=0;orthogonalLoop=1;jettySize=auto;html=1;exitX=0.25;exitY=1;exitDx=0;exitDy=0;entryX=0.458;entryY=0;entryDx=0;entryDy=0;entryPerimeter=0;" edge="1" parent="rGn6xfDUcE6vp63_f6CC-1" source="skR1pX6ddOoQZ_6h21xY-9" target="skR1pX6ddOoQZ_6h21xY-12">
          <mxGeometry relative="1" as="geometry" />
        </mxCell>
        <mxCell id="skR1pX6ddOoQZ_6h21xY-6" style="edgeStyle=orthogonalEdgeStyle;rounded=0;orthogonalLoop=1;jettySize=auto;html=1;exitX=0.5;exitY=1;exitDx=0;exitDy=0;entryX=1;entryY=0.25;entryDx=0;entryDy=0;" edge="1" parent="rGn6xfDUcE6vp63_f6CC-1" source="skR1pX6ddOoQZ_6h21xY-9" target="skR1pX6ddOoQZ_6h21xY-14">
          <mxGeometry relative="1" as="geometry" />
        </mxCell>
        <mxCell id="skR1pX6ddOoQZ_6h21xY-7" style="edgeStyle=orthogonalEdgeStyle;rounded=0;orthogonalLoop=1;jettySize=auto;html=1;exitX=0.75;exitY=1;exitDx=0;exitDy=0;entryX=0.958;entryY=0;entryDx=0;entryDy=0;entryPerimeter=0;" edge="1" parent="rGn6xfDUcE6vp63_f6CC-1" source="skR1pX6ddOoQZ_6h21xY-9" target="skR1pX6ddOoQZ_6h21xY-17">
          <mxGeometry relative="1" as="geometry">
            <mxPoint x="810" y="360" as="targetPoint" />
          </mxGeometry>
        </mxCell>
        <mxCell id="skR1pX6ddOoQZ_6h21xY-8" style="edgeStyle=orthogonalEdgeStyle;rounded=0;orthogonalLoop=1;jettySize=auto;html=1;entryX=1;entryY=0.5;entryDx=0;entryDy=0;" edge="1" parent="rGn6xfDUcE6vp63_f6CC-1" source="skR1pX6ddOoQZ_6h21xY-9" target="skR1pX6ddOoQZ_6h21xY-20">
          <mxGeometry relative="1" as="geometry" />
        </mxCell>
        <mxCell id="skR1pX6ddOoQZ_6h21xY-9" value="Expenses Component" style="rounded=0;whiteSpace=wrap;html=1;" vertex="1" parent="rGn6xfDUcE6vp63_f6CC-1">
          <mxGeometry x="640" y="160" width="240" height="40" as="geometry" />
        </mxCell>
        <mxCell id="skR1pX6ddOoQZ_6h21xY-11" value="1) sets initial filterstate to 2020.&lt;br&gt;2) returns Card&lt;br&gt;3) returns ExpenseFilter(passes selected year as prop selected).&lt;br&gt;4) returns ExpensesChart(passes the expenses for the filtered year as prop expenses.&lt;br&gt;5) returns ExpensesList(passes the expenses for the filtered year as prop expenses.)" style="rounded=0;whiteSpace=wrap;html=1;" vertex="1" parent="rGn6xfDUcE6vp63_f6CC-1">
          <mxGeometry x="190" y="110" width="320" height="130" as="geometry" />
        </mxCell>
        <mxCell id="skR1pX6ddOoQZ_6h21xY-12" value="Card Component" style="rounded=0;whiteSpace=wrap;html=1;" vertex="1" parent="rGn6xfDUcE6vp63_f6CC-1">
          <mxGeometry x="440" y="320" width="240" height="30" as="geometry" />
        </mxCell>
        <mxCell id="skR1pX6ddOoQZ_6h21xY-13" value="1) Is container ui element will display the ExpenseFilter, ExpensesChart and Expenses List components" style="rounded=0;whiteSpace=wrap;html=1;" vertex="1" parent="rGn6xfDUcE6vp63_f6CC-1">
          <mxGeometry x="110" y="320" width="320" height="30" as="geometry" />
        </mxCell>
        <mxCell id="skR1pX6ddOoQZ_6h21xY-14" value="ExpenseFilter Component" style="rounded=0;whiteSpace=wrap;html=1;" vertex="1" parent="rGn6xfDUcE6vp63_f6CC-1">
          <mxGeometry x="440" y="400" width="240" height="30" as="geometry" />
        </mxCell>
        <mxCell id="skR1pX6ddOoQZ_6h21xY-15" value="1) Will receive selected year as prop.&lt;br&gt;2) Will display the selected year as default value in the filter" style="rounded=0;whiteSpace=wrap;html=1;" vertex="1" parent="rGn6xfDUcE6vp63_f6CC-1">
          <mxGeometry x="110" y="400" width="320" height="30" as="geometry" />
        </mxCell>
        <mxCell id="skR1pX6ddOoQZ_6h21xY-16" style="edgeStyle=orthogonalEdgeStyle;rounded=0;orthogonalLoop=1;jettySize=auto;html=1;exitX=1;exitY=1;exitDx=0;exitDy=0;entryX=1;entryY=0.5;entryDx=0;entryDy=0;" edge="1" parent="rGn6xfDUcE6vp63_f6CC-1" source="skR1pX6ddOoQZ_6h21xY-17" target="skR1pX6ddOoQZ_6h21xY-23">
          <mxGeometry relative="1" as="geometry">
            <Array as="points">
              <mxPoint x="720" y="560" />
              <mxPoint x="720" y="835" />
            </Array>
          </mxGeometry>
        </mxCell>
        <mxCell id="skR1pX6ddOoQZ_6h21xY-17" value="ExpensesChart Component" style="rounded=0;whiteSpace=wrap;html=1;" vertex="1" parent="rGn6xfDUcE6vp63_f6CC-1">
          <mxGeometry x="440" y="530" width="240" height="30" as="geometry" />
        </mxCell>
        <mxCell id="skR1pX6ddOoQZ_6h21xY-18" value="1) will receive the array of filtered expenses basis match with the year.&lt;br&gt;2) has array of label and value to set the chart height in chartdataPoints object.&lt;br&gt;3) will loop through the expenses received in props. assign amount.&lt;br&gt;4) return Chart(passes the chartDataPoints as dataPoints prop" style="rounded=0;whiteSpace=wrap;html=1;" vertex="1" parent="rGn6xfDUcE6vp63_f6CC-1">
          <mxGeometry x="110" y="480" width="320" height="130" as="geometry" />
        </mxCell>
        <mxCell id="skR1pX6ddOoQZ_6h21xY-19" style="edgeStyle=orthogonalEdgeStyle;rounded=0;orthogonalLoop=1;jettySize=auto;html=1;exitX=0.75;exitY=1;exitDx=0;exitDy=0;entryX=1;entryY=0.75;entryDx=0;entryDy=0;" edge="1" parent="rGn6xfDUcE6vp63_f6CC-1" source="skR1pX6ddOoQZ_6h21xY-20" target="skR1pX6ddOoQZ_6h21xY-28">
          <mxGeometry relative="1" as="geometry">
            <Array as="points">
              <mxPoint x="670" y="710" />
              <mxPoint x="670" y="900" />
              <mxPoint x="700" y="900" />
              <mxPoint x="700" y="1113" />
            </Array>
          </mxGeometry>
        </mxCell>
        <mxCell id="skR1pX6ddOoQZ_6h21xY-20" value="ExpensesList Component" style="rounded=0;whiteSpace=wrap;html=1;" vertex="1" parent="rGn6xfDUcE6vp63_f6CC-1">
          <mxGeometry x="440" y="680" width="240" height="30" as="geometry" />
        </mxCell>
        <mxCell id="skR1pX6ddOoQZ_6h21xY-21" value="1) will receive the array of filtered expenses basis match with the year.&lt;br&gt;2) if the data is empty it will display no expenses found.&lt;br&gt;3) if not empty it will map through the expenses and then call ExpenseItem(passes key, title, amount and date as props)" style="rounded=0;whiteSpace=wrap;html=1;" vertex="1" parent="rGn6xfDUcE6vp63_f6CC-1">
          <mxGeometry x="110" y="640" width="320" height="110" as="geometry" />
        </mxCell>
        <mxCell id="skR1pX6ddOoQZ_6h21xY-22" style="edgeStyle=orthogonalEdgeStyle;rounded=0;orthogonalLoop=1;jettySize=auto;html=1;exitX=0.75;exitY=1;exitDx=0;exitDy=0;" edge="1" parent="rGn6xfDUcE6vp63_f6CC-1" source="skR1pX6ddOoQZ_6h21xY-23" target="skR1pX6ddOoQZ_6h21xY-25">
          <mxGeometry relative="1" as="geometry" />
        </mxCell>
        <mxCell id="skR1pX6ddOoQZ_6h21xY-23" value="Chart Component" style="rounded=0;whiteSpace=wrap;html=1;" vertex="1" parent="rGn6xfDUcE6vp63_f6CC-1">
          <mxGeometry x="440" y="820" width="240" height="30" as="geometry" />
        </mxCell>
        <mxCell id="skR1pX6ddOoQZ_6h21xY-24" value="1) will receive the chartDataPoints as props.&amp;nbsp;&lt;br&gt;2) Will calculate the maximum value for one expense.&lt;br&gt;3) Will return ChartBar(passes key, value, maxValue and label as props" style="rounded=0;whiteSpace=wrap;html=1;" vertex="1" parent="rGn6xfDUcE6vp63_f6CC-1">
          <mxGeometry x="110" y="790" width="320" height="110" as="geometry" />
        </mxCell>
        <mxCell id="skR1pX6ddOoQZ_6h21xY-25" value="ChartBar Component" style="rounded=0;whiteSpace=wrap;html=1;" vertex="1" parent="rGn6xfDUcE6vp63_f6CC-1">
          <mxGeometry x="440" y="960" width="240" height="30" as="geometry" />
        </mxCell>
        <mxCell id="skR1pX6ddOoQZ_6h21xY-26" value="1) Will display the bar correcty." style="rounded=0;whiteSpace=wrap;html=1;" vertex="1" parent="rGn6xfDUcE6vp63_f6CC-1">
          <mxGeometry x="110" y="955" width="320" height="40" as="geometry" />
        </mxCell>
        <mxCell id="skR1pX6ddOoQZ_6h21xY-27" style="edgeStyle=orthogonalEdgeStyle;rounded=0;orthogonalLoop=1;jettySize=auto;html=1;exitX=0.75;exitY=1;exitDx=0;exitDy=0;entryX=0.5;entryY=0;entryDx=0;entryDy=0;" edge="1" parent="rGn6xfDUcE6vp63_f6CC-1" source="skR1pX6ddOoQZ_6h21xY-28" target="skR1pX6ddOoQZ_6h21xY-30">
          <mxGeometry relative="1" as="geometry" />
        </mxCell>
        <mxCell id="skR1pX6ddOoQZ_6h21xY-28" value="ExpenseItem Component" style="rounded=0;whiteSpace=wrap;html=1;" vertex="1" parent="rGn6xfDUcE6vp63_f6CC-1">
          <mxGeometry x="440" y="1090" width="240" height="30" as="geometry" />
        </mxCell>
        <mxCell id="skR1pX6ddOoQZ_6h21xY-29" value="1) will receive the relevant expense list as a prop.&amp;nbsp;&lt;br&gt;2) return Expense date(pass date as prop date)&lt;br&gt;3) Displaythe title and amount" style="rounded=0;whiteSpace=wrap;html=1;" vertex="1" parent="rGn6xfDUcE6vp63_f6CC-1">
          <mxGeometry x="110" y="1040" width="320" height="110" as="geometry" />
        </mxCell>
        <mxCell id="skR1pX6ddOoQZ_6h21xY-30" value="ExpenseDate Component" style="rounded=0;whiteSpace=wrap;html=1;" vertex="1" parent="rGn6xfDUcE6vp63_f6CC-1">
          <mxGeometry x="440" y="1210" width="240" height="30" as="geometry" />
        </mxCell>
        <mxCell id="skR1pX6ddOoQZ_6h21xY-31" value="1) will reformat the date correctly and display" style="rounded=0;whiteSpace=wrap;html=1;" vertex="1" parent="rGn6xfDUcE6vp63_f6CC-1">
          <mxGeometry x="110" y="1180" width="320" height="110" as="geometry" />
        </mxCell>
        <mxCell id="skR1pX6ddOoQZ_6h21xY-33" value="Expense Form Component" style="rounded=0;whiteSpace=wrap;html=1;" vertex="1" parent="rGn6xfDUcE6vp63_f6CC-1">
          <mxGeometry x="1160" y="680" width="240" height="40" as="geometry" />
        </mxCell>
        <mxCell id="MMr_3jqXQVMsiVdoHszW-0" value="1) As a first step remember that this component will only be triggered when the user clicks the new expense button.&lt;br&gt;2) Initial state will be blank for title, amount and date.&amp;nbsp;&lt;br&gt;3) the JSX will return empty text boxes for the 3 elements.&amp;nbsp;&lt;br&gt;4) There is an onchange event on each of these 3 textboxes. they trigger the relevant function which captures the value that the user enters.&amp;nbsp;&lt;br&gt;5) there is also 2 way binding on these elements so once the user submits his data. the values of the text box can be reinitialised to an empty string. This can be achieved by passing the initial state value like this,&amp;nbsp;&lt;span style=&quot;font-family: &amp;#34;menlo&amp;#34; , &amp;#34;monaco&amp;#34; , &amp;#34;courier new&amp;#34; , monospace ; color: rgb(156 , 220 , 254)&quot;&gt;value&lt;/span&gt;&lt;span style=&quot;background-color: rgb(30 , 30 , 30) ; color: rgb(212 , 212 , 212) ; font-family: &amp;#34;menlo&amp;#34; , &amp;#34;monaco&amp;#34; , &amp;#34;courier new&amp;#34; , monospace&quot;&gt;=&lt;/span&gt;&lt;span style=&quot;font-family: &amp;#34;menlo&amp;#34; , &amp;#34;monaco&amp;#34; , &amp;#34;courier new&amp;#34; , monospace ; color: rgb(86 , 156 , 214)&quot;&gt;{&lt;/span&gt;&lt;span style=&quot;font-family: &amp;#34;menlo&amp;#34; , &amp;#34;monaco&amp;#34; , &amp;#34;courier new&amp;#34; , monospace ; color: rgb(79 , 193 , 255)&quot;&gt;enteredTitle&lt;/span&gt;&lt;font color=&quot;#569cd6&quot; face=&quot;Menlo, Monaco, Courier New, monospace&quot;&gt;} and then reinitialising&amp;nbsp;the value in the submit handler.&amp;nbsp;&lt;br&gt;6) When the form is submitted a Submit Hanlder function is called.&amp;nbsp;&lt;br&gt;7) This function prevents the default submit behaviour. it then consolidates the entered data as one object. It then calls the prop that is there on the parent component. it does this by props.name of the attribute on the parent component. And passes the data via argument.&amp;nbsp;&lt;br&gt;8) on the parent component the attribute name will have a reference to the called function.&amp;nbsp;&lt;br&gt;9)&amp;nbsp;&lt;br&gt;&lt;/font&gt;" style="rounded=0;whiteSpace=wrap;html=1;" vertex="1" parent="rGn6xfDUcE6vp63_f6CC-1">
          <mxGeometry x="1440" y="670" width="320" height="500" as="geometry" />
        </mxCell>
      </root>
    </mxGraphModel>
  </diagram>
</mxfile>
